<svg xmlns="http://www.w3.org/2000/svg" viewBox="0 0 40 40">
  <rect width="40" height="40" rx="10" fill="#f2ead7" />
  <g fill="#426b52" stroke="#77a76a" stroke-width="1.5" stroke-linecap="round" stroke-linejoin="round">
    <path d="M18 28 C15 32 12 35 8 37" fill="none" />
    <path d="M14 33 C11 31 9 31 7 33 C10 34 12 35 14 33Z" />
  </g>
  <g stroke="#d99a3d" stroke-width="0.8" stroke-linejoin="round">
    <ellipse cx="20" cy="9" rx="3.4" ry="8.2" fill="#f0c775" transform="rotate(0 20 20)" />
    <ellipse cx="20" cy="9" rx="3.2" ry="7.6" fill="#f3d85b" transform="rotate(30 20 20)" />
    <ellipse cx="20" cy="9" rx="3.4" ry="8.2" fill="#f0c775" transform="rotate(60 20 20)" />
    <ellipse cx="20" cy="9" rx="3.2" ry="7.6" fill="#f3d85b" transform="rotate(90 20 20)" />
    <ellipse cx="20" cy="9" rx="3.4" ry="8.2" fill="#f0c775" transform="rotate(120 20 20)" />
    <ellipse cx="20" cy="9" rx="3.2" ry="7.6" fill="#f3d85b" transform="rotate(150 20 20)" />
    <ellipse cx="20" cy="9" rx="3.4" ry="8.2" fill="#f0c775" transform="rotate(180 20 20)" />
    <ellipse cx="20" cy="9" rx="3.2" ry="7.6" fill="#f3d85b" transform="rotate(210 20 20)" />
    <ellipse cx="20" cy="9" rx="3.4" ry="8.2" fill="#f0c775" transform="rotate(240 20 20)" />
    <ellipse cx="20" cy="9" rx="3.2" ry="7.6" fill="#f3d85b" transform="rotate(270 20 20)" />
    <ellipse cx="20" cy="9" rx="3.4" ry="8.2" fill="#f0c775" transform="rotate(300 20 20)" />
    <ellipse cx="20" cy="9" rx="3.2" ry="7.6" fill="#f3d85b" transform="rotate(330 20 20)" />
  </g>
  <circle cx="20" cy="20" r="7.2" fill="#5a321a" stroke="#f0c775" stroke-width="1.2" />
  <circle cx="20" cy="20" r="3.4" fill="#1f210d" opacity="0.86" />
</svg>
